#!OML:ASF I:\Actors\actors\Patient Classification 2\Patient 1\Session 1\actor1.ASF
:FULLY-SPECIFIED
:DEGREES
766
root -0.677382 18.6954 5.63091 2.53239 -3.50415 -0.446052
lowerback 6.84547 1.44697 -2.02774
upperback -5.6118 1.75576 0.420129
thorax -9.89776 1.00962 1.31706
lowerneck -7.8234 -0.809272 0.658131
upperneck 23.1728 -1.27988 0.140982
head 8.47554 -0.535424 -0.186383
rclavicle -5.46658e-016 -2.5842e-015
rhumerus -50.5483 -11.066 -74.8815
rradius 41.3749
rwrist 9.13319
rhand -14.2812 -33.0359
rfingers 7.12502
rthumb 11.8579 -62.6801
lclavicle -5.46658e-016 -2.5842e-015
lhumerus -45.9859 6.37696 84.2708
lradius 37.2112
lwrist 1.68193
lhand -16.5949 -18.4912
lfingers 7.12502
lthumb 9.62623 11.2689
rfemur 0 0 0
rtibia 0
rfoot 0 0
rtoes 0
lfemur -4.05063 -4.52958 -14.0052
ltibia 20.2812
lfoot -24.394 17.6415
ltoes -54.6027
767
root -0.676368 18.6956 5.63341 2.53812 -3.51274 -0.412147
lowerback 6.76338 1.44156 -2.0215
upperback -5.57498 1.74843 0.391633
thorax -9.8064 1.00356 1.28669
lowerneck -7.86382 -0.817125 0.64408
upperneck 23.0887 -1.31036 0.236884
head 8.45524 -0.54198 -0.154694
rclavicle 1.86547e-014 1.28713e-014
rhumerus -50.3966 -10.6381 -75.1884
rradius 41.0256
rwrist 9.47202
rhand -14.2952 -33.0905
rfingers 7.12502
rthumb 11.8444 -62.7355
lclavicle 1.86547e-014 1.28713e-014
lhumerus -45.9983 6.06971 84.4776
lradius 37.3903
lwrist 1.85316
lhand -16.4456 -18.6177
lfingers 7.12502
lthumb 9.77022 11.1357
rfemur 0 0 0
rtibia 0
rfoot 0 0
rtoes 0
lfemur -4.03479 -4.56467 -14.0496
ltibia 20.2567
lfoot -24.4183 17.6694
ltoes -54.6654
768
root -0.675466 18.6954 5.63542 2.55125 -3.51423 -0.422183
lowerback 6.69365 1.43063 -1.99239
upperback -5.54824 1.73824 0.388954
thorax -9.73362 0.995847 1.27103
lowerneck -7.90179 -0.82064 0.606321
upperneck 23.0283 -1.33102 0.333558
head 8.44277 -0.545727 -0.117894
rclavicle 1.32627e-014 4.07509e-015
rhumerus -50.3085 -10.1955 -75.4682
rradius 40.7556
rwrist 9.80462
rhand -14.2282 -33.0165
rfingers 7.12502
rthumb 11.9091 -62.6578
lclavicle 1.32627e-014 4.07509e-015
lhumerus -46.0763 5.5914 84.7926
lradius 37.7223
lwrist 2.18901
lhand -16.2627 -18.5025
lfingers 7.12502
lthumb 9.94669 11.2425
rfemur 0 0 0
rtibia 0
rfoot 0 0
rtoes 0
lfemur -4.04161 -4.52718 -14.0352
ltibia 20.2452
lfoot -24.3998 17.65
ltoes -54.7048
769
root -0.674619 18.6959 5.63615 2.579 -3.50301 -0.44242
lowerback 6.64247 1.42086 -1.96178
upperback -5.54724 1.73002 0.39498
thorax -9.70074 0.989837 1.26273
lowerneck -7.87609 -0.815184 0.640577
upperneck 22.9502 -1.31639 0.281955
head 8.41088 -0.541512 -0.139205
rclavicle -5.69642e-015 2.28602e-015
rhumerus -50.3107 -9.75122 -75.7297
rradius 40.5757
rwrist 10.1325
rhand -14.1287 -32.9714
rfingers 7.12502
rthumb 12.0051 -62.6071
lclavicle -5.69642e-015 2.28602e-015
lhumerus -46.2616 4.86601 85.2499
lradius 38.2063
lwrist 2.75419
lhand -16.0662 -18.3945
lfingers 7.12502
lthumb 10.1363 11.3413
rfemur 0 0 0
rtibia 0
rfoot 0 0
rtoes 0
lfemur -4.07968 -4.40498 -14
ltibia 20.2502
lfoot -24.3207 17.5643
ltoes -54.7515
770
root -0.67399 18.6957 5.63751 2.60424 -3.49004 -0.458805
lowerback 6.57258 1.4197 -1.92462
upperback -5.5331 1.73398 0.395077
thorax -9.64227 0.988806 1.24318
lowerneck -7.90857 -0.8095 0.632138
upperneck 22.9165 -1.30168 0.259345
head 8.40531 -0.537563 -0.144011
rclavicle 4.72735e-015 -8.94531e-015
rhumerus -50.3223 -9.37292 -75.9681
rradius 40.5091
rwrist 10.591
rhand -13.6957 -33.3381
rfingers 7.12502
rthumb 12.4225 -62.949
lclavicle 4.72735e-015 -8.94531e-015
lhumerus -46.3856 4.17491 85.6857
lradius 38.6288
lwrist 3.24194
lhand -15.7844 -18.3923
lfingers 7.12502
lthumb 10.4082 11.3301
rfemur 0 0 0
rtibia 0
rfoot 0 0
rtoes 0
lfemur -4.13471 -4.31787 -13.9739
ltibia 20.3047
lfoot -24.2659 17.4878
ltoes -54.7916
771
root -0.672964 18.6952 5.63956 2.62328 -3.46904 -0.444574
lowerback 6.50318 1.41892 -1.90721
upperback -5.51409 1.7355 0.386484
thorax -9.57908 0.987526 1.22589
lowerneck -8.04041 -0.803242 0.497089
upperneck 22.9933 -1.29779 0.373877
head 8.4575 -0.535066 -0.0833336
rclavicle 5.42309e-015 -5.81445e-015
rhumerus -50.3455 -9.11936 -76.1469
rradius 40.5024
rwrist 10.9924
rhand -13.2673 -33.8866
rfingers 7.12502
rthumb 12.8355 -63.472
lclavicle 5.42309e-015 -5.81445e-015
lhumerus -46.3815 3.73205 86.0036
lradius 38.8494
lwrist 3.4652
lhand -15.5263 -18.4782
lfingers 7.12502
lthumb 10.6571 11.2315
rfemur 0 0 0
rtibia 0
rfoot 0 0
rtoes 0
lfemur -4.24124 -4.29485 -13.9877
ltibia 20.4755
lfoot -24.3092 17.4328
ltoes -54.7577
772
root -0.663742 18.6936 5.63959 2.54754 -3.38931 -0.646959
lowerback 6.61491 1.38517 -1.54116
upperback -5.49691 1.7313 0.421632
thorax -9.61438 0.962047 1.05635
lowerneck -8.03347 -0.81071 0.49799
upperneck 22.9846 -1.3005 0.339915
head 8.45298 -0.539703 -0.0950665
rclavicle -2.50344e-015 -6.01324e-015
rhumerus -50.4209 -8.92781 -76.2831
rradius 40.4913
rwrist 11.0379
rhand -13.1657 -34.121
rfingers 7.12502
rthumb 12.9335 -63.7002
lclavicle -2.50344e-015 -6.01324e-015
lhumerus -46.4084 3.30962 86.3324
lradius 39.2065
lwrist 3.90463
lhand -15.0103 -18.0404
lfingers 7.12502
lthumb 11.1548 11.6431
rfemur 0 0 0
rtibia 0
rfoot 0 0
rtoes 0
lfemur -4.22949 -4.27129 -13.7867
ltibia 20.6384
lfoot -24.3466 17.3271
ltoes -54.7335
773
root -0.640911 18.6891 5.63559 2.324 -3.21716 -1.28332
lowerback 6.98153 1.30125 -0.497031
upperback -5.45046 1.74126 0.526286
thorax -9.74937 0.899671 0.572997
lowerneck -8.08059 -0.809252 0.452393
upperneck 23.0323 -1.29593 0.359422
head 8.47835 -0.539111 -0.0807473
rclavicle 1.38777e-014 1.00386e-014
rhumerus -50.5059 -8.82696 -76.3895
rradius 40.4667
rwrist 11.0224
rhand -13.0181 -34.1683
rfingers 7.12502
rthumb 13.0758 -63.7384
lclavicle 1.38777e-014 1.00386e-014
lhumerus -46.4699 2.85933 86.6562
lradius 39.7411
lwrist 4.5983
lhand -14.1214 -17.1238
lfingers 7.12502
lthumb 12.0121 12.5115
rfemur 0 0 0
rtibia 0
rfoot 0 0
rtoes 0
lfemur -4.03451 -4.21768 -13.1465
ltibia 20.8032
lfoot -24.352 17.0928
ltoes -54.7628
774
root -0.6397 18.6894 5.6386 2.31755 -3.1782 -1.22648
lowerback 6.92772 1.29465 -0.521066
upperback -5.43556 1.72749 0.501663
thorax -9.70055 0.893648 0.563774
lowerneck -8.0952 -0.826924 0.445274
upperneck 23.077 -1.33199 0.411322
head 8.49676 -0.551326 -0.0657985
rclavicle -6.44808e-015 -1.09332e-014
rhumerus -50.6285 -8.85517 -76.4862
rradius 40.4932
rwrist 11.0417
rhand -12.9488 -34.3217
rfingers 7.12502
rthumb 13.1425 -63.8876
lclavicle -6.44808e-015 -1.09332e-014
lhumerus -46.4826 2.53831 86.8654
lradius 40.0441
lwrist 4.96611
lhand -13.4481 -16.9364
lfingers 7.12502
lthumb 12.6613 12.6598
rfemur 0 0 0
rtibia 0
rfoot 0 0
rtoes 0
lfemur -4.06924 -4.20644 -13.212
ltibia 20.8781
lfoot -24.3682 17.0395
ltoes -54.7675
775
root -0.63839 18.6893 5.64132 2.28959 -3.14922 -1.1942
lowerback 6.89633 1.2836 -0.521829
upperback -5.4194 1.71087 0.483119
thorax -9.66311 0.884862 0.547912
lowerneck -8.07312 -0.820547 0.468194
upperneck 23.0591 -1.31707 0.369878
head 8.48607 -0.546587 -0.081982
rclavicle -1.39087e-014 -6.11263e-015
rhumerus -50.7504 -8.94686 -76.5573
rradius 40.5529
rwrist 11.2402
rhand -12.6876 -34.6984
rfingers 7.12502
rthumb 13.3943 -64.2478
lclavicle -1.39087e-014 -6.11263e-015
lhumerus -46.4765 2.33826 87.023
lradius 40.0526
lwrist 4.79851
lhand -13.44 -17.6294
lfingers 7.12502
lthumb 12.669 11.9663
rfemur 0 0 0
rtibia 0
rfoot 0 0
rtoes 0
lfemur -4.10567 -4.23697 -13.2532
ltibia 20.998
lfoot -24.4221 17.0272
ltoes -54.7657
776
root -0.651742 18.691 5.64869 2.39134 -3.2307 -0.835936
lowerback 6.62065 1.31774 -1.12216
upperback -5.43004 1.68786 0.438294
thorax -9.52868 0.912579 0.846373
lowerneck -8.04079 -0.812948 0.480721
upperneck 23.056 -1.29895 0.328947
head 8.47864 -0.541147 -0.0959165
rclavicle 1.26042e-014 7.45443e-016
rhumerus -50.7911 -9.00189 -76.6385
rradius 40.4428
rwrist 11.2446
rhand -12.6533 -34.5964
rfingers 7.12502
rthumb 13.4274 -64.1436
lclavicle 1.26042e-014 7.45443e-016
lhumerus -46.5171 2.13862 87.2394
lradius 39.9099
lwrist 4.11172
lhand -14.3227 -18.6555
lfingers 7.12502
lthumb 11.8179 10.991
rfemur 0 0 0
rtibia 0
rfoot 0 0
rtoes 0
lfemur -4.17749 -4.29816 -13.6155
ltibia 20.8884
lfoot -24.429 17.1658
ltoes -54.7146
777
root -0.637082 18.6877 5.64573 2.24163 -3.12738 -1.26367
lowerback 6.83068 1.25201 -0.455387
upperback -5.3975 1.6793 0.523683
thorax -9.59858 0.866688 0.560335
lowerneck -8.00131 -0.796669 0.502128
upperneck 23.0585 -1.26849 0.280348
head 8.47168 -0.529865 -0.112726
rclavicle -3.11906e-014 -1.84373e-014
rhumerus -50.7884 -8.94784 -76.7714
rradius 40.2621
rwrist 11.0103
rhand -12.8521 -34.0732
rfingers 7.12502
rthumb 13.2358 -63.633
lclavicle -3.11906e-014 -1.84373e-014
lhumerus -46.5269 2.12938 87.3025
lradius 40.2144
lwrist 4.74098
lhand -13.2344 -18.1901
lfingers 7.12502
lthumb 12.8672 11.3933
rfemur 0 0 0
rtibia 0
rfoot 0 0
rtoes 0
lfemur -3.9343 -4.22793 -13.1796
ltibia 20.7713
lfoot -24.2921 17.0636
ltoes -54.8014
